<?xml version="1.0" encoding="utf-8"?>
<!-- Generator: Adobe Illustrator 22.1.0, SVG Export Plug-In . SVG Version: 6.00 Build 0)  -->
<svg version="1.1" id="Layer_1" xmlns="http://www.w3.org/2000/svg" xmlns:xlink="http://www.w3.org/1999/xlink" x="0px" y="0px"
	 viewBox="0 0 84.9 97.5" width="295.087992092" height="338.881969717" style="enable-background:new 0 0 84.9 97.5;" xml:space="preserve">
<style type="text/css">
	.st0{fill:#221E1F;}
	.st1{fill:#FFFFFF;}
	.st2{fill:none;stroke:#221E1F;stroke-width:0.83;stroke-miterlimit:3.86;}
	.st3{fill:#B9073E;}
	.st4{fill:none;stroke:#221E1F;stroke-width:0.61;stroke-miterlimit:3.86;}
	.st5{fill:none;stroke:#FFFFFF;stroke-width:0.61;stroke-miterlimit:3.86;}
	.st6{fill:none;stroke:#221E1F;stroke-width:0.76;stroke-miterlimit:3.86;}
</style>
<title>Asset 1</title>
<g id="Layer_2_1_">
	<g id="Layer_1-2">
		<path class="st0" d="M42.6,97.5c0,0-33.3-17.5-40.4-54.9C-0.8,26.2,0.2,0,0.2,0h84.6c0,0,1,26.2-2.1,42.6
			C75.7,80,42.6,97.5,42.6,97.5"/>
		<path class="st1" d="M42.5,96.5c0,0-32.3-18.2-39.1-54.4c-3-15.9-2-41.2-2-41.2h81.9c0,0,1,25.3-2,41.2
			C74.6,78.3,42.5,96.5,42.5,96.5"/>
		<path class="st1" d="M42.6,96.2c0,0-32.3-18.1-39.1-54.4c-3-15.9-2-41.2-2-41.2h81.9c0,0,1,25.3-2,41.2
			C74.6,78.1,42.6,96.2,42.6,96.2"/>
		<path class="st2" d="M42.6,96.2c0,0-32.3-18.1-39.1-54.4c-3-15.9-2-41.2-2-41.2h81.9c0,0,1,25.3-2,41.2
			C74.6,78.1,42.6,96.2,42.6,96.2z"/>
		<polygon class="st3" points="26.1,83.4 58.8,83.4 55.2,87 52.8,88.9 32.2,89 29.6,86.6 		"/>
		<polygon class="st3" points="17.3,73.1 67.7,73.1 65.5,76.2 63.7,78.1 21.4,78.2 19.4,75.9 		"/>
		<polygon class="st3" points="11,62.8 74,62.8 71.1,67.8 13.9,67.8 12.1,65.2 		"/>
		<polygon class="st3" points="3.6,41.9 4.1,44.7 4.7,47 80.4,46.9 80.9,44.4 81.4,41.9 		"/>
		<polygon class="st3" points="1.4,1 83.5,1 83.1,13.3 83.1,25.5 1.8,25.5 1.5,20.6 1.3,11.2 		"/>
		<polygon class="st3" points="6.3,52.2 8.1,57.5 76.6,57.4 78.7,52.2 		"/>
		<polygon class="st3" points="2.2,31.2 82.8,31.2 82.6,33.9 82.3,36.6 2.8,36.6 2.3,33.3 		"/>
		<path class="st2" d="M42.5,96.5c0,0-32.3-18.2-39.1-54.4c-3-15.9-2-41.2-2-41.2h81.9c0,0,1,25.3-2,41.2
			C74.6,78.3,42.5,96.5,42.5,96.5z"/>
		<path class="st4" d="M22.5,19l1.4,1.6 M31.9,88.9H53 M58.9,83.4H26.1 M21.3,78.1h42.5 M67.6,73.1H17.2 M82.7,31.2H2.2 M13.8,67.8
			h57.3 M74.1,62.8H10.8 M8,57.5h68.7 M78.7,52.2H6.2 M4.5,46.9h75.7 M81.4,41.9H3.2 M2.5,36.6h79.7 M1.7,25.6H83"/>
		<line class="st5" x1="8.9" y1="19" x2="7.5" y2="20.5"/>
		<path class="st1" d="M5.8,7.1c0,0,0-1.1,0.4-1.6c0.5-0.3,1-0.4,1.6-0.3h6.5c0.5,0,0.7,0.4,1.3,0.4s0.7-0.4,1.3-0.4h7.8
			c0,0,0.9-0.1,1.2,0.3c0.3,0.4,0.4,0.9,0.4,1.4v1.5c0,0,2.4-0.1,2.5,1s-2.5,1.2-2.5,1.2v6.2c0,0,2.5-0.3,2.4,1.1s-2.4,1.1-2.4,1.1
			v1.2c0,0.5-0.1,1-0.3,1.5c-0.6,0.8-2.4,0.6-2.4,0.6H8c0,0-1.3,0.2-1.8-0.3c-0.3-0.5-0.4-1-0.4-1.5v-1.2c0,0-2.5,0.3-2.5-1.2
			s2.5-1.2,2.5-1.2v-6.1c0,0-2.5,0.3-2.5-1.1s2.5-1.2,2.5-1.2V7.1z"/>
		<path class="st6" d="M5.8,7.1c0,0,0-1.1,0.4-1.6c0.5-0.3,1-0.4,1.6-0.3h6.5c0.5,0,0.7,0.4,1.3,0.4s0.7-0.4,1.3-0.4h7.8
			c0,0,0.9-0.1,1.2,0.3c0.3,0.4,0.4,0.9,0.4,1.4v1.5c0,0,2.4-0.1,2.5,1s-2.5,1.2-2.5,1.2v6.2c0,0,2.5-0.3,2.4,1.1s-2.4,1.1-2.4,1.1
			v1.2c0,0.5-0.1,1-0.3,1.5c-0.6,0.8-2.4,0.6-2.4,0.6H8c0,0-1.3,0.2-1.8-0.3c-0.3-0.5-0.4-1-0.4-1.5v-1.2c0,0-2.5,0.3-2.5-1.2
			s2.5-1.2,2.5-1.2v-6.1c0,0-2.5,0.3-2.5-1.1s2.5-1.2,2.5-1.2V7.1z"/>
		<line class="st4" x1="15.5" y1="5.7" x2="15.5" y2="20.7"/>
		<path class="st1" d="M15.7,20.8c0.7,0,1.2,0.6,1.2,1.2c0,0.7-0.6,1.2-1.2,1.2c-0.7,0-1.2-0.5-1.2-1.2
			C14.5,21.3,15.1,20.8,15.7,20.8"/>
		<path class="st6" d="M15.7,20.8c0.7,0,1.2,0.6,1.2,1.2c0,0.7-0.6,1.2-1.2,1.2c-0.7,0-1.2-0.5-1.2-1.2C14.5,21.3,15,20.8,15.7,20.8
			C15.7,20.8,15.7,20.8,15.7,20.8z"/>
		<path class="st4" d="M22.7,5.4v12.1c0,0,0.3,1.4-0.3,1.9s-1.8,0.2-1.8,0.2s-2.2,0.2-3.5,0.4c-0.5,0.2-1,0.5-1.4,0.8 M22.7,5.4
			c0,0,1.6,1.1,1.6,2v11.8c0.1,0.5,0,1.1-0.3,1.5c-0.5,0.5-1.8,0.4-1.8,0.4c-1.1-0.1-2.3-0.1-3.4,0c-1.4,0.2-1.1,0.4-1.8,0.7
			 M8.6,5.3c0,0-1.6,1-1.6,2v11.8c-0.1,0.5,0.1,1.1,0.3,1.5C7.9,21.2,9.2,21,9.2,21c1.1-0.1,2.3-0.1,3.4,0c1.4,0.2,1.1,0.4,1.8,0.7
			 M8.6,5.3v12.1c-0.1,0.6,0,1.3,0.3,1.9c0.4,0.6,1.8,0.2,1.8,0.2s2.2,0.2,3.5,0.4c0.5,0.2,1,0.5,1.4,0.8 M8.9,19.1l-1.4,1.5"/>
		<path class="st1" d="M32.1,7.1c0,0,0-1.1,0.4-1.6c0.5-0.3,1-0.4,1.6-0.3h6.5c0.5,0,0.7,0.4,1.2,0.4s0.7-0.4,1.3-0.4h7.8
			c0,0,0.9-0.1,1.2,0.3c0.3,0.4,0.4,0.9,0.4,1.4v1.5c0,0,2.4-0.1,2.5,1s-2.5,1.2-2.5,1.2v6.2c0,0,2.5-0.3,2.4,1.1s-2.4,1.1-2.4,1.1
			v1.2c0,0.5-0.1,1-0.3,1.5c-0.6,0.8-2.4,0.6-2.4,0.6H34.3c0,0-1.3,0.2-1.8-0.3c-0.3-0.5-0.4-1-0.4-1.5v-1.2c0,0-2.5,0.3-2.5-1.2
			s2.5-1.2,2.5-1.2v-6.1c0,0-2.5,0.3-2.5-1.1s2.5-1.2,2.5-1.2V7.1z"/>
		<path class="st6" d="M32.1,7.1c0,0,0-1.1,0.4-1.6c0.5-0.3,1-0.4,1.6-0.3h6.5c0.5,0,0.7,0.4,1.2,0.4s0.7-0.4,1.3-0.4h7.8
			c0,0,0.9-0.1,1.2,0.3c0.3,0.4,0.4,0.9,0.4,1.4v1.5c0,0,2.4-0.1,2.5,1s-2.5,1.2-2.5,1.2v6.2c0,0,2.5-0.3,2.4,1.1s-2.4,1.1-2.4,1.1
			v1.2c0,0.5-0.1,1-0.3,1.5c-0.6,0.8-2.4,0.6-2.4,0.6H34.3c0,0-1.3,0.2-1.8-0.3c-0.3-0.5-0.4-1-0.4-1.5v-1.2c0,0-2.5,0.3-2.5-1.2
			s2.5-1.2,2.5-1.2v-6.1c0,0-2.5,0.3-2.5-1.1s2.5-1.2,2.5-1.2V7.1z"/>
		<line class="st4" x1="41.9" y1="5.7" x2="41.9" y2="20.7"/>
		<path class="st1" d="M42.1,20.8c0.7,0,1.2,0.6,1.2,1.2c0,0.7-0.6,1.2-1.2,1.2c-0.7,0-1.2-0.5-1.2-1.2
			C40.8,21.3,41.4,20.8,42.1,20.8"/>
		<path class="st6" d="M42.1,20.8c0.7,0,1.2,0.6,1.2,1.2c0,0.7-0.6,1.2-1.2,1.2c-0.7,0-1.2-0.5-1.2-1.2
			C40.8,21.3,41.4,20.8,42.1,20.8C42.1,20.8,42.1,20.8,42.1,20.8z"/>
		<path class="st4" d="M49.1,5.4v12.1c0,0,0.3,1.4-0.2,1.9s-1.8,0.2-1.8,0.2s-2.2,0.2-3.5,0.4c-0.5,0.2-1,0.5-1.4,0.8 M49.1,5.4
			c0,0,1.6,1.1,1.6,2v11.8c0.1,0.5-0.1,1.1-0.3,1.5c-0.5,0.5-1.8,0.4-1.8,0.4c-1.1-0.1-2.3-0.1-3.4,0c-1.4,0.2-1.1,0.4-1.8,0.7
			 M35,5.3c0,0-1.6,1-1.6,2v11.8c-0.1,0.5,0.1,1.1,0.3,1.5c0.5,0.5,1.8,0.4,1.8,0.4c1.1-0.1,2.3-0.1,3.4,0c1.4,0.2,1.1,0.4,1.8,0.7
			 M35,5.3v12.1c-0.1,0.6,0,1.3,0.2,1.9c0.4,0.6,1.8,0.2,1.8,0.2s2.2,0.2,3.5,0.4c0.5,0.2,1,0.5,1.4,0.8 M35.2,19.1l-1.4,1.5"/>
		<path class="st1" d="M58.5,7.1c0,0,0-1.1,0.4-1.6c0.5-0.3,1-0.4,1.6-0.3h6.5c0.5,0,0.7,0.4,1.3,0.4s0.7-0.4,1.3-0.4h7.8
			c0,0,0.9-0.1,1.2,0.3c0.3,0.4,0.4,0.9,0.4,1.4v1.5c0,0,2.4-0.1,2.4,1s-2.4,1.2-2.4,1.2v6.2c0,0,2.4-0.3,2.4,1.1s-2.4,1.1-2.4,1.1
			v1.2c0,0.5-0.1,1-0.3,1.5c-0.6,0.8-2.4,0.6-2.4,0.6H60.7c0,0-1.3,0.2-1.8-0.3c-0.3-0.5-0.4-1-0.4-1.5v-1.2c0,0-2.5,0.3-2.5-1.2
			s2.5-1.2,2.5-1.2v-6.1c0,0-2.5,0.3-2.5-1.1s2.5-1.2,2.5-1.2V7.1z"/>
		<path class="st6" d="M58.5,7.1c0,0,0-1.1,0.4-1.6c0.5-0.3,1-0.4,1.6-0.3h6.5c0.5,0,0.7,0.4,1.3,0.4s0.7-0.4,1.3-0.4h7.8
			c0,0,0.9-0.1,1.2,0.3c0.3,0.4,0.4,0.9,0.4,1.4v1.5c0,0,2.4-0.1,2.4,1s-2.4,1.2-2.4,1.2v6.2c0,0,2.4-0.3,2.4,1.1s-2.4,1.1-2.4,1.1
			v1.2c0,0.5-0.1,1-0.3,1.5c-0.6,0.8-2.4,0.6-2.4,0.6H60.7c0,0-1.3,0.2-1.8-0.3c-0.3-0.5-0.4-1-0.4-1.5v-1.2c0,0-2.5,0.3-2.5-1.2
			s2.5-1.2,2.5-1.2v-6.1c0,0-2.5,0.3-2.5-1.1s2.5-1.2,2.5-1.2V7.1z"/>
		<line class="st4" x1="68.2" y1="5.7" x2="68.2" y2="20.7"/>
		<path class="st1" d="M68.4,20.8c0.7,0,1.2,0.6,1.2,1.2c0,0.7-0.6,1.2-1.2,1.2c-0.7,0-1.2-0.5-1.2-1.2
			C67.2,21.3,67.7,20.8,68.4,20.8C68.4,20.8,68.4,20.8,68.4,20.8"/>
		<path class="st6" d="M68.4,20.8c0.7,0,1.2,0.6,1.2,1.2c0,0.7-0.6,1.2-1.2,1.2c-0.7,0-1.2-0.5-1.2-1.2
			C67.2,21.3,67.7,20.8,68.4,20.8C68.4,20.8,68.4,20.8,68.4,20.8z"/>
		<path class="st4" d="M75.4,5.4v12.1c0,0,0.3,1.4-0.2,1.9s-1.8,0.2-1.8,0.2s-2.2,0.2-3.5,0.4c-0.5,0.2-1,0.5-1.4,0.8 M75.4,5.4
			c0,0,1.6,1.1,1.6,2v11.8c0.1,0.5-0.1,1.1-0.3,1.5c-0.5,0.5-1.8,0.4-1.8,0.4c-1.1-0.1-2.3-0.1-3.4,0c-1.4,0.2-1.1,0.4-1.8,0.7
			 M61.3,5.3c0,0-1.6,1-1.6,2v11.8c-0.1,0.5,0.1,1.1,0.3,1.5c0.5,0.5,1.8,0.4,1.8,0.4c1.1-0.1,2.3-0.1,3.4,0
			c1.4,0.2,1.1,0.4,1.8,0.7 M61.3,5.3v12.1c-0.1,0.6,0,1.3,0.3,1.9c0.4,0.6,1.8,0.2,1.8,0.2s2.2,0.2,3.5,0.4c0.5,0.2,1,0.5,1.4,0.8
			 M61.5,19.1l-1.4,1.5"/>
		<path class="st0" d="M14.8,9v0.1c-0.4,0.6-0.6,0-1.3,2.6S12.7,15,12.4,15s-0.5-1.6-1.1-3.2c-0.9-2.7-1.3-2.4-1.3-2.6s0,0,0-0.1
			h2.1c0.1,0.1,0,0.2,0,0.2c0,0.3-0.3,0.4-0.3,0.9c0,0,0.6,2,0.9,2s0.9-2.1,0.9-2.2c0-0.2-0.2-0.4-0.4-0.7V9C13.9,9,14.2,9,14.8,9"
			/>
		<path class="st0" d="M19.1,8.8h0.8c0,0.3,0.2,0.6,0.2,0.7v0.6c-0.3,0.1-0.2,0-0.2,0c-0.4,0-0.6-0.6-1-0.6h-0.6
			c-0.2,0.3-0.3,0.6-0.3,1V11c0,0.2,0.2,0.5,0.4,0.5c0,0,0.1,0,0.1,0c0.6,0,0.8-0.6,1.1-0.6s0.3,0.6,0.3,0.9s0,0.8-0.3,0.8
			s-0.4-0.6-1.1-0.6c-0.2,0.1-0.4,0.2-0.4,0.5v1.5c0,0.4,0.3,0.7,0.6,0.7c0,0,0.1,0,0.1,0c0.6,0,1.2-0.4,1.4-1h0.3
			c0.1,0.2,0.1,0.4,0.2,0.6v0.6C20.4,14.9,20.2,15,20,15h-3.3c0-0.1-0.2-0.2-0.2-0.3c-0.1-0.4,0.6-0.5,0.6-0.9v-3.3
			c0-1.2-0.5-0.9-0.5-1.3V9c0.9,0,1.5,0,2.1,0C18.8,9,19,8.9,19.1,8.8"/>
		<path class="st0" d="M43.6,8.9h2.6v0.4c-0.3,0.1-0.8,0.4-0.8,0.8v3.8c0,0.9,0.8,0.6,0.8,0.9v0.5h-2.6v-0.5c0-0.4,0.7-0.1,0.7-0.9
			v-3.8c0-0.5-0.4-0.7-0.7-0.9V8.9"/>
		<path class="st0" d="M73.6,8.8c0.1,0,0.4,0.3,0.4,1.1c0,0.2-0.2,0.1,0,0.6h-0.4c-0.2-0.3-0.4-0.6-0.7-0.8h-0.7
			C72,10,72,9.7,72,10.2c0,1,2.5,1.4,2.5,3.3c0,0.8-0.7,1.7-1.2,1.7h-1.8c-0.1-0.6-0.1-1.3,0-1.9c0-0.2,0-0.4,0.2-0.4
			c0.3,0,0.3,1.8,1.4,1.8c0.4,0,0.7-0.3,0.7-0.7c0-1.5-2.6-1.4-2.6-3.6c0-0.6,0.4-1.2,1-1.4h0.8C73.3,8.9,73.3,8.8,73.6,8.8"/>
		<path class="st0" d="M41.7,14.5h-0.2c0-0.1-1.4-1.4-1.4-1.9c0-0.2,1.5-0.7,1.4-2.2c0-0.7-0.5-1.4-1.2-1.6h-3.7c0,0.1,0,0.3,0,0.4
			c0,0,0.8,0.6,0.7,1.1v3.6c0,0.2-0.6,0.6-0.6,0.9c0,0.2,0,0.3,0,0.5H39c0-0.2,0-0.3,0-0.5c0-0.2-0.3-0.4-0.4-0.9
			c-0.1-0.3-0.1-0.6,0-0.9h0.3c0.4,0.9,1.1,1.6,1.9,2.2h0.8C41.7,15.5,41.7,14.5,41.7,14.5"/>
		<path class="st0" d="M70.4,14.6c0.2,0.2,0.5,0.4,0.7,0.5v0.2H69c-0.1-0.1-0.2-0.2-0.2-0.3l0.4-0.7c-0.3-0.3-0.5-0.5-0.7-0.9
			c-0.3,0-0.5,0-0.8,0c-0.2,0.2-0.2,0.3-0.4,0.7c-0.1,0.2,0.1,0.2,0.5,0.7c0,0.1-0.1,0.3-0.2,0.4c-0.8,0-1.7,0-2,0h-2.3v-0.2
			c0.1-0.4,0.7-0.3,0.7-1.3v-3.1c0-0.4,0-1.3-0.3-1.3c-0.4,0.2-0.8,0.5-1,0.9h-0.2V9.9c0-0.1,0.1-1.5,0.6-1.5
			c0.4,0.2,0.8,0.3,1.2,0.4h1.5c0.1,0,0.4-0.2,0.8-0.2s0.3,0.2,0.3,0.5c0,0.1-0.3,1.4-0.5,1.4s-0.2-0.5-0.7-1.1h-0.4
			c-0.1,1.3-0.1,2.6,0,3.9c0,0.3,0,0.6,0,0.8c0,0.2,0.2,0.7,0.4,0.7c0.9,0,1.1-2.1,1.5-3.2c0,0,0.8-3,1.1-3.7L70.4,14.6z"/>
		<path class="st1" d="M38.8,9.4h0.8c0.4,0.3,0.7,0.8,0.7,1.4c0,0.1,0,0.2,0,0.3c-0.1,0.5-0.5,0.7-0.7,0.8h-0.7
			c-0.1-0.2-0.2-0.4-0.2-0.6c0-0.3,0-0.7,0-1C38.6,9.7,38.6,10,38.8,9.4"/>
		<path class="st1" d="M68.1,11.2c0.2,0.4,0.4,0.8,0.4,1.2c0,0.2,0,0.1,0,0.3h-0.8c-0.1-0.4,0-0.3,0-0.4c0-0.4,0.1-0.7,0.2-1.1H68.1
			z"/>
	</g>
</g>
</svg>
